# xmcd CD database file
#
# Track frame offsets:
#	150
#	20930
#	41504
#	58343
#	76708
#	89745
#	107795
#	123766
#	143764
#	162645
#	180214
#	196889
#	212045
#	228205
#	243854
#	257917
#	274334
#	290401
#	305091
#	321425
#	336753
#
# Disc length: 4685 seconds
#
# Revision: 2
# Processed by: cddbd v1.5.2PL0 Copyright (c) Steve Scherf et al.
# Submitted via: CDex 1.50Beta7
#
DISCID=38124b15
DTITLE=Various Artist - BRAVO Hits 58 CD2
DYEAR=2007
DGENRE=Pop
TTITLE0=Bon Jovi - (You Want To) Make A Memory
TTITLE1=Pink - Dear Mr. President
TTITLE2=Ich and Ich - Vom selben Stern
TTITLE3=Azad Feat. Adel Tawil - Prison Break Anthem (Ich glaub an Dich)
TTITLE4=Stürmer Christina - Augenblick am Tag
TTITLE5=Lavigne Avril - When You're Gone
TTITLE6=Maroon 5 - Makes Me Wonder
TTITLE7=Mena Maria - Just Hold Me
TTITLE8=Akon  - Don't Matter
TTITLE9=Connor Sarah Feat. NeYo - Sexual Healing
TTITLE10=Reeve Tommy - I'm Sorry
TTITLE11=Melanie C - Carolyna
TTITLE12=Excuse Me Moses - Butterfly Tree
TTITLE13=Pretty Ricky - (I Wanna See You) Push It Baby
TTITLE14=Delay Jan - Türlich, Türlich
TTITLE15=Die Fantastischen Vier - Einfach sein
TTITLE16=Below Down - Private Soul Security
TTITLE17=Killerpilze - Liebmichhassmich
TTITLE18=Lafee - Heul Doch
TTITLE19=Revolverheld - Du Explodierst
TTITLE20=Sportfreunde Stiller - Alles Roger
EXTD=YEAR: 2007
EXTT0=
EXTT1=
EXTT2=
EXTT3=
EXTT4=
EXTT5=
EXTT6=
EXTT7=
EXTT8=
EXTT9=
EXTT10=
EXTT11=
EXTT12=
EXTT13=
EXTT14=
EXTT15=
EXTT16=
EXTT17=
EXTT18=
EXTT19=
EXTT20=
PLAYORDER=
